<svg width="48" height="48" viewBox="0 0 48 48" fill="none" xmlns="http://www.w3.org/2000/svg">
<g filter="url(#filter0_i_826_145)">
<rect x="3" y="3" width="42" height="42" rx="21" fill="url(#paint0_linear_826_145)"/>
</g>
<g filter="url(#filter1_d_826_145)">
<path d="M21.4496 39C21.4496 37.7107 21.4496 36.4151 21.4496 35.1258C21.6464 35.1639 21.5702 35.3227 21.5702 35.4306C21.5766 36.4659 21.5829 37.5011 21.5702 38.5364C21.5639 38.7968 21.6337 38.8793 21.9003 38.8793C24.2232 38.8666 26.5462 38.8666 28.8692 38.8793C29.1484 38.8793 29.1928 38.7777 29.1928 38.53C29.1802 36.9422 29.1865 35.3608 29.1865 33.773C29.1865 33.1823 29.1992 32.5916 29.1992 32.001C29.3769 32.0772 29.3007 32.2423 29.3007 32.363C29.3071 34.5732 29.3071 36.7834 29.3071 38.9937C26.6985 39 24.0709 39 21.4496 39Z" fill="white"/>
<path d="M29.2056 32.0009C29.1992 32.5916 29.1929 33.1823 29.1929 33.7729C29.1929 35.3607 29.1865 36.9422 29.1992 38.53C29.1992 38.7777 29.1548 38.8793 28.8755 38.8793C26.5526 38.8666 24.2296 38.8666 21.9067 38.8793C21.6401 38.8793 21.5703 38.7967 21.5766 38.5363C21.5893 37.5011 21.583 36.4658 21.5766 35.4306C21.5766 35.3226 21.6528 35.1638 21.456 35.1257C20.8404 35.1829 20.2311 35.329 19.6027 35.3036C17.4765 35.221 15.8263 34.3255 14.8616 32.3947C14.3412 31.3531 13.7319 30.3814 13.0147 29.4732C12.8179 29.2255 12.5133 29.1239 12.2848 28.9206C12.215 28.8571 12.1325 28.8063 12.0753 28.7301C11.9294 28.5205 11.9992 28.3617 12.2531 28.3363C13.4272 28.2156 14.3983 28.6031 15.1853 29.4859C15.5852 29.9368 15.8327 30.4894 16.2199 30.953C17.0005 31.8866 17.997 32.3947 19.2029 32.5345C19.9328 32.617 20.6246 32.4773 21.3164 32.2677C21.456 32.2296 21.5132 32.1407 21.5259 31.9946C21.5703 31.3404 21.7036 30.7053 21.9574 30.0956C22.0717 29.8225 22.2557 29.5938 22.3954 29.3144C21.7416 29.1493 21.0816 29.0984 20.4596 28.9079C18.7396 28.3871 17.229 27.5361 16.131 26.0689C15.6042 25.3703 15.2361 24.5891 15.0266 23.7507C14.9124 23.2935 14.7791 22.8362 14.7855 22.3535C14.7918 21.5088 14.7537 20.6577 14.8045 19.813C14.8616 18.746 15.0013 17.6853 15.3884 16.6882C15.6296 16.0721 15.9787 15.5069 16.4737 15.0432C16.6261 14.8972 16.6832 14.7828 16.588 14.5415C16.1183 13.2903 16.0739 12.0137 16.4737 10.7308C16.4864 10.6927 16.4928 10.6482 16.4991 10.6038C16.6387 9.94958 16.7847 9.88607 17.4067 10.1338C18.6253 10.6101 19.5202 11.4675 20.2819 12.5028C20.4977 12.7949 20.4532 12.9219 20.9166 12.6234C21.5322 12.2297 22.2494 12.109 22.9602 12.0328C24.236 11.8994 25.518 11.9375 26.7938 11.9629C27.7014 11.982 28.6026 12.1026 29.4595 12.4202C29.6562 12.4901 29.8403 12.598 30.0116 12.7251C30.1449 12.8267 30.2401 12.8267 30.3671 12.6552C30.9446 11.8422 31.6047 11.1055 32.4615 10.5847C32.8804 10.3307 33.312 10.0957 33.8198 10.0385C34.0292 10.0131 34.1181 10.083 34.1752 10.2481C34.702 11.7025 34.7781 13.1506 34.1625 14.5987C34.0863 14.7765 34.1117 14.8908 34.245 15.0115C35.2605 15.9642 35.6286 17.2027 35.819 18.5364C35.9777 19.6606 36.0221 20.7911 35.9904 21.9216C35.9396 23.9032 35.2669 25.6307 33.8071 27.0089C32.9502 27.8155 31.922 28.349 30.8177 28.7555C30.0307 29.0476 29.1992 29.1239 28.3741 29.3271C28.4566 29.524 28.609 29.6701 28.6471 29.8669C28.628 29.9495 28.6724 29.994 28.7486 30.013C28.755 30.0511 28.7676 30.0829 28.774 30.121C28.793 30.2544 28.7803 30.3941 28.9327 30.464C28.9644 30.6037 28.9961 30.7498 29.0215 30.8895C29.0152 30.9975 28.9771 31.1118 29.1231 31.1626C29.1231 31.2007 29.1294 31.2388 29.1294 31.2833C29.0342 31.4293 29.1231 31.5437 29.1992 31.6643C29.1992 31.7533 29.2056 31.8803 29.2056 32.0009Z" fill="white"/>
<path d="M29.1929 31.6323C29.123 31.5117 29.0278 31.3975 29.123 31.2515C29.1992 31.3721 29.2563 31.4927 29.1929 31.6323Z" fill="white"/>
<path d="M28.92 30.4384C28.7676 30.3686 28.7803 30.2289 28.7613 30.0956C28.9009 30.1718 28.92 30.2987 28.92 30.4384Z" fill="white"/>
<path d="M29.1167 31.1306C28.9708 31.0799 29.0088 30.9656 29.0152 30.8577C29.1612 30.9085 29.1294 31.0291 29.1167 31.1306Z" fill="white"/>
<path d="M28.7359 29.9875C28.6597 29.9685 28.6153 29.9241 28.6343 29.8416C28.7169 29.8606 28.7549 29.905 28.7359 29.9875Z" fill="white"/>
</g>
<defs>
<filter id="filter0_i_826_145" x="3" y="3" width="42" height="42" filterUnits="userSpaceOnUse" color-interpolation-filters="sRGB">
<feFlood flood-opacity="0" result="BackgroundImageFix"/>
<feBlend mode="normal" in="SourceGraphic" in2="BackgroundImageFix" result="shape"/>
<feColorMatrix in="SourceAlpha" type="matrix" values="0 0 0 0 0 0 0 0 0 0 0 0 0 0 0 0 0 0 127 0" result="hardAlpha"/>
<feOffset/>
<feGaussianBlur stdDeviation="2"/>
<feComposite in2="hardAlpha" operator="arithmetic" k2="-1" k3="1"/>
<feColorMatrix type="matrix" values="0 0 0 0 1 0 0 0 0 1 0 0 0 0 1 0 0 0 0.35 0"/>
<feBlend mode="normal" in2="shape" result="effect1_innerShadow_826_145"/>
</filter>
<filter id="filter1_d_826_145" x="9" y="7" width="30" height="35" filterUnits="userSpaceOnUse" color-interpolation-filters="sRGB">
<feFlood flood-opacity="0" result="BackgroundImageFix"/>
<feColorMatrix in="SourceAlpha" type="matrix" values="0 0 0 0 0 0 0 0 0 0 0 0 0 0 0 0 0 0 127 0" result="hardAlpha"/>
<feOffset/>
<feGaussianBlur stdDeviation="1.5"/>
<feComposite in2="hardAlpha" operator="out"/>
<feColorMatrix type="matrix" values="0 0 0 0 0.133333 0 0 0 0 0.133333 0 0 0 0 0.133333 0 0 0 0.75 0"/>
<feBlend mode="normal" in2="BackgroundImageFix" result="effect1_dropShadow_826_145"/>
<feBlend mode="normal" in="SourceGraphic" in2="effect1_dropShadow_826_145" result="shape"/>
</filter>
<linearGradient id="paint0_linear_826_145" x1="3" y1="3" x2="45" y2="45" gradientUnits="userSpaceOnUse">
<stop stop-color="#222222"/>
<stop offset="1" stop-color="#555555"/>
</linearGradient>
</defs>
</svg>
