<svg width="48" height="48" viewBox="0 0 48 48" fill="none" xmlns="http://www.w3.org/2000/svg">
<g filter="url(#filter0_i_830_266)">
<rect x="3" y="3" width="42" height="42" rx="21" fill="url(#paint0_linear_830_266)"/>
</g>
<g filter="url(#filter1_d_830_266)">
<path d="M37 32.6094C37 32.7474 36.8881 32.8594 36.75 32.8594H11.25C11.1119 32.8594 11 32.7474 11 32.6094V17.8379C11 17.6189 11.2616 17.5057 11.4212 17.6557L23.8288 29.3185C23.925 29.409 24.075 29.409 24.1712 29.3185L36.5788 17.6557C36.7384 17.5057 37 17.6189 37 17.8379V32.6094ZM24.1712 28.0588C24.075 28.1492 23.925 28.1492 23.8288 28.0588L11.4598 16.4322C11.2947 16.277 11.4045 16 11.631 16H36.369C36.5955 16 36.7053 16.277 36.5402 16.4322L24.1712 28.0588Z" fill="white"/>
</g>
<defs>
<filter id="filter0_i_830_266" x="3" y="3" width="42" height="42" filterUnits="userSpaceOnUse" color-interpolation-filters="sRGB">
<feFlood flood-opacity="0" result="BackgroundImageFix"/>
<feBlend mode="normal" in="SourceGraphic" in2="BackgroundImageFix" result="shape"/>
<feColorMatrix in="SourceAlpha" type="matrix" values="0 0 0 0 0 0 0 0 0 0 0 0 0 0 0 0 0 0 127 0" result="hardAlpha"/>
<feOffset/>
<feGaussianBlur stdDeviation="2"/>
<feComposite in2="hardAlpha" operator="arithmetic" k2="-1" k3="1"/>
<feColorMatrix type="matrix" values="0 0 0 0 1 0 0 0 0 1 0 0 0 0 1 0 0 0 0.35 0"/>
<feBlend mode="normal" in2="shape" result="effect1_innerShadow_830_266"/>
</filter>
<filter id="filter1_d_830_266" x="8" y="13" width="32" height="22.8594" filterUnits="userSpaceOnUse" color-interpolation-filters="sRGB">
<feFlood flood-opacity="0" result="BackgroundImageFix"/>
<feColorMatrix in="SourceAlpha" type="matrix" values="0 0 0 0 0 0 0 0 0 0 0 0 0 0 0 0 0 0 127 0" result="hardAlpha"/>
<feOffset/>
<feGaussianBlur stdDeviation="1.5"/>
<feComposite in2="hardAlpha" operator="out"/>
<feColorMatrix type="matrix" values="0 0 0 0 0.133333 0 0 0 0 0.133333 0 0 0 0 0.133333 0 0 0 0.75 0"/>
<feBlend mode="normal" in2="BackgroundImageFix" result="effect1_dropShadow_830_266"/>
<feBlend mode="normal" in="SourceGraphic" in2="effect1_dropShadow_830_266" result="shape"/>
</filter>
<linearGradient id="paint0_linear_830_266" x1="3" y1="3" x2="45" y2="45" gradientUnits="userSpaceOnUse">
<stop stop-color="#F10D0D"/>
<stop offset="1" stop-color="#B31010"/>
</linearGradient>
</defs>
</svg>
