<svg width="48" height="48" viewBox="0 0 48 48" fill="none" xmlns="http://www.w3.org/2000/svg">
<g filter="url(#filter0_i_827_174)">
<rect x="3" y="3" width="42" height="42" rx="21" fill="url(#paint0_linear_827_174)"/>
</g>
<g filter="url(#filter1_d_827_174)">
<path d="M33.2241 13.0899L9.677 22.3185C9.66299 22.324 9.64941 22.3305 9.63638 22.338C9.44543 22.4476 8.11289 23.2731 9.99186 24.0132L10.0112 24.0204L15.6181 25.855C15.6609 25.8691 15.7062 25.8735 15.7508 25.868C15.7955 25.8625 15.8384 25.8472 15.8766 25.8231L29.7835 17.0353C29.8176 17.0138 29.8556 16.9993 29.8952 16.9926C30.0887 16.9602 30.6458 16.8995 30.2934 17.3527C29.8947 17.867 20.3958 26.4882 19.3415 27.4443C19.2807 27.4996 19.2431 27.5763 19.2364 27.6588L18.7763 33.2135C18.7762 33.2701 18.7892 33.3259 18.8141 33.3765C18.8391 33.4271 18.8753 33.4712 18.92 33.5051C18.9834 33.5456 19.058 33.5643 19.1327 33.5586C19.2074 33.5528 19.2783 33.5229 19.3349 33.4733L22.6663 30.4577C22.7189 30.4101 22.786 30.3822 22.8565 30.3785C22.927 30.3749 22.9966 30.3958 23.0538 30.4377L28.8659 34.7118L28.8847 34.7246C29.0253 34.8126 30.5448 35.708 30.9835 33.7083L34.9954 14.3876C35.001 14.3263 35.0553 13.6536 34.5805 13.256C34.0818 12.8405 33.3759 13.0503 33.2698 13.0729C33.2541 13.0773 33.2388 13.083 33.2241 13.0899Z" fill="white"/>
</g>
<defs>
<filter id="filter0_i_827_174" x="3" y="3" width="42" height="42" filterUnits="userSpaceOnUse" color-interpolation-filters="sRGB">
<feFlood flood-opacity="0" result="BackgroundImageFix"/>
<feBlend mode="normal" in="SourceGraphic" in2="BackgroundImageFix" result="shape"/>
<feColorMatrix in="SourceAlpha" type="matrix" values="0 0 0 0 0 0 0 0 0 0 0 0 0 0 0 0 0 0 127 0" result="hardAlpha"/>
<feOffset/>
<feGaussianBlur stdDeviation="2"/>
<feComposite in2="hardAlpha" operator="arithmetic" k2="-1" k3="1"/>
<feColorMatrix type="matrix" values="0 0 0 0 1 0 0 0 0 1 0 0 0 0 1 0 0 0 0.35 0"/>
<feBlend mode="normal" in2="shape" result="effect1_innerShadow_827_174"/>
</filter>
<filter id="filter1_d_827_174" x="6" y="10" width="32" height="28" filterUnits="userSpaceOnUse" color-interpolation-filters="sRGB">
<feFlood flood-opacity="0" result="BackgroundImageFix"/>
<feColorMatrix in="SourceAlpha" type="matrix" values="0 0 0 0 0 0 0 0 0 0 0 0 0 0 0 0 0 0 127 0" result="hardAlpha"/>
<feOffset/>
<feGaussianBlur stdDeviation="1.5"/>
<feComposite in2="hardAlpha" operator="out"/>
<feColorMatrix type="matrix" values="0 0 0 0 0.133333 0 0 0 0 0.133333 0 0 0 0 0.133333 0 0 0 0.75 0"/>
<feBlend mode="normal" in2="BackgroundImageFix" result="effect1_dropShadow_827_174"/>
<feBlend mode="normal" in="SourceGraphic" in2="effect1_dropShadow_827_174" result="shape"/>
</filter>
<linearGradient id="paint0_linear_827_174" x1="3" y1="3" x2="45" y2="45" gradientUnits="userSpaceOnUse">
<stop stop-color="#50C6FF"/>
<stop offset="1" stop-color="#009EEB"/>
</linearGradient>
</defs>
</svg>
