<svg width="48" height="48" viewBox="0 0 48 48" fill="none" xmlns="http://www.w3.org/2000/svg">
<g filter="url(#filter0_i_829_200)">
<rect x="3" y="3" width="42" height="42" rx="21" fill="url(#paint0_linear_829_200)"/>
</g>
<g filter="url(#filter1_d_829_200)">
<path d="M35.9798 18.659H31.7607C31.5884 18.659 31.4195 18.7064 31.2717 18.7963C31.1239 18.8862 31.0028 19.0152 30.9214 19.1695C30.9214 19.1695 29.2387 22.3205 28.6981 23.3818C27.244 26.2369 26.3024 25.3406 26.3024 24.0155V19.4467C26.3024 19.0649 26.1532 18.6987 25.8877 18.4287C25.6222 18.1588 25.2621 18.0071 24.8866 18.0071H21.7144C21.2824 17.9745 20.8493 18.0546 20.4564 18.24C20.0634 18.4254 19.7236 18.7099 19.4692 19.0664C19.4692 19.0664 21.08 18.8016 21.08 21.0084C21.08 21.5556 21.1077 23.1299 21.133 24.4502C21.1378 24.6448 21.0837 24.8362 20.9781 24.9985C20.8725 25.1609 20.7204 25.2863 20.5425 25.358C20.3645 25.4297 20.1692 25.4442 19.9829 25.3994C19.7966 25.3546 19.6283 25.2528 19.5007 25.1077C18.2023 23.2715 17.1267 21.2826 16.2975 19.1841C16.2263 19.0271 16.1122 18.8942 15.969 18.8011C15.8257 18.7081 15.6592 18.6587 15.4891 18.659C14.5742 18.659 12.7432 18.659 11.6558 18.659C11.5504 18.6582 11.4463 18.6836 11.3526 18.7327C11.2589 18.7819 11.1784 18.8535 11.1179 18.9413C11.0574 19.0291 11.0187 19.1305 11.0053 19.2369C10.9919 19.3432 11.004 19.4513 11.0407 19.5518C12.2047 22.7981 17.2188 33 22.9419 33H25.3507C25.6031 33 25.8452 32.898 26.0237 32.7166C26.2021 32.5351 26.3024 32.289 26.3024 32.0324V30.5534C26.3024 30.3679 26.3558 30.1864 26.456 30.0314C26.5562 29.8763 26.6988 29.7545 26.8662 29.6808C27.0337 29.6071 27.2187 29.5849 27.3985 29.6168C27.5782 29.6488 27.7449 29.7335 27.8778 29.8605L30.761 32.6149C31.02 32.8623 31.3619 33 31.7172 33H35.5034C37.3295 33 37.3295 31.7116 36.3338 30.7146C35.6332 30.013 33.1048 27.3033 33.1048 27.3033C32.8883 27.0752 32.7591 26.7759 32.7407 26.4595C32.7223 26.143 32.8158 25.8303 33.0043 25.5779C33.8216 24.4844 35.1583 22.6943 35.7252 21.9275C36.5001 20.8794 37.9025 18.659 35.9798 18.659Z" fill="white"/>
</g>
<defs>
<filter id="filter0_i_829_200" x="3" y="3" width="42" height="42" filterUnits="userSpaceOnUse" color-interpolation-filters="sRGB">
<feFlood flood-opacity="0" result="BackgroundImageFix"/>
<feBlend mode="normal" in="SourceGraphic" in2="BackgroundImageFix" result="shape"/>
<feColorMatrix in="SourceAlpha" type="matrix" values="0 0 0 0 0 0 0 0 0 0 0 0 0 0 0 0 0 0 127 0" result="hardAlpha"/>
<feOffset/>
<feGaussianBlur stdDeviation="2"/>
<feComposite in2="hardAlpha" operator="arithmetic" k2="-1" k3="1"/>
<feColorMatrix type="matrix" values="0 0 0 0 1 0 0 0 0 1 0 0 0 0 1 0 0 0 0.35 0"/>
<feBlend mode="normal" in2="shape" result="effect1_innerShadow_829_200"/>
</filter>
<filter id="filter1_d_829_200" x="8" y="15" width="32" height="21" filterUnits="userSpaceOnUse" color-interpolation-filters="sRGB">
<feFlood flood-opacity="0" result="BackgroundImageFix"/>
<feColorMatrix in="SourceAlpha" type="matrix" values="0 0 0 0 0 0 0 0 0 0 0 0 0 0 0 0 0 0 127 0" result="hardAlpha"/>
<feOffset/>
<feGaussianBlur stdDeviation="1.5"/>
<feComposite in2="hardAlpha" operator="out"/>
<feColorMatrix type="matrix" values="0 0 0 0 0.133333 0 0 0 0 0.133333 0 0 0 0 0.133333 0 0 0 0.75 0"/>
<feBlend mode="normal" in2="BackgroundImageFix" result="effect1_dropShadow_829_200"/>
<feBlend mode="normal" in="SourceGraphic" in2="effect1_dropShadow_829_200" result="shape"/>
</filter>
<linearGradient id="paint0_linear_829_200" x1="3" y1="3" x2="45" y2="45" gradientUnits="userSpaceOnUse">
<stop stop-color="#6F9BC8"/>
<stop offset="1" stop-color="#2E5E8E"/>
</linearGradient>
</defs>
</svg>
