<svg width="1000" height="1000" viewBox="0 0 1000 1000" fill="none" xmlns="http://www.w3.org/2000/svg">
<g clip-path="url(#clip0_2024_16857)">
<path d="M500 190C491.716 190 485 201.195 485 215.004V783.996C485 797.806 491.716 809 500 809C508.285 809 515 797.806 515 783.996V215.004C515 201.195 508.285 190 500 190Z" fill="black"/>
<path d="M783.996 485H215.004C201.195 485 190 491.716 190 500C190 508.285 201.195 515 215.004 515H783.996C797.806 515 809 508.285 809 500C809 491.716 797.806 485 783.996 485Z" fill="black"/>
</g>
<defs>
<clipPath id="clip0_2024_16857">
<rect width="619" height="619" fill="white" transform="translate(190 190)"/>
</clipPath>
</defs>
</svg>
