<svg width="1000" height="1000" viewBox="0 0 1000 1000" fill="none" xmlns="http://www.w3.org/2000/svg">
<g clip-path="url(#clip0_2024_16865)">
<path d="M718.806 282.806C712.948 276.948 700.283 280.115 690.519 289.88L288.181 692.218C278.415 701.983 275.249 714.647 281.107 720.505C286.965 726.363 299.629 723.196 309.394 713.431L711.732 311.093C721.496 301.329 724.664 288.664 718.806 282.806Z" fill="black"/>
<path d="M711.218 692.218L308.88 289.88C299.115 280.115 286.45 276.948 280.593 282.806C274.734 288.664 277.902 301.329 287.667 311.093L690.004 713.431C699.77 723.196 712.434 726.363 718.292 720.505C724.149 714.647 720.983 701.983 711.218 692.218Z" fill="black"/>
</g>
<defs>
<clipPath id="clip0_2024_16865">
<rect width="619" height="619" fill="white" transform="translate(499.699 62) rotate(45)"/>
</clipPath>
</defs>
</svg>
