<svg width="1000" height="1000" viewBox="0 0 1000 1000" fill="none" xmlns="http://www.w3.org/2000/svg">
<path d="M717.37 353.74L687.37 744.45C687.37 760.679 680.923 776.243 669.448 787.718C657.973 799.193 642.409 805.64 626.18 805.64H373.85C357.622 805.64 342.058 799.193 330.582 787.718C319.107 776.243 312.66 760.679 312.66 744.45L282.66 353.74" stroke="#020202" stroke-width="30" stroke-miterlimit="10" stroke-linecap="round"/>
<path d="M600.899 314.41H418.699" stroke="#020202" stroke-width="30" stroke-miterlimit="10" stroke-linecap="round"/>
<path d="M351.57 314.41H222V276.52C222 269.094 224.95 261.972 230.201 256.721C235.452 251.47 242.574 248.52 250 248.52H438.35C438.35 248.42 438.35 248.33 438.35 248.24C438.35 218.84 465.96 195 500.01 195C534.06 195 561.67 218.84 561.67 248.24C561.67 248.33 561.67 248.42 561.67 248.52H750C757.426 248.52 764.548 251.47 769.799 256.721C775.05 261.972 778 269.094 778 276.52V314.41H671.37" stroke="#020202" stroke-width="30" stroke-miterlimit="10" stroke-linecap="round"/>
<path d="M397.359 455.96V701.07" stroke="#020202" stroke-width="30" stroke-miterlimit="10" stroke-linecap="round"/>
<path d="M500 455.96V701.07" stroke="#020202" stroke-width="30" stroke-miterlimit="10" stroke-linecap="round"/>
<path d="M602.641 455.96V701.07" stroke="#020202" stroke-width="30" stroke-miterlimit="10" stroke-linecap="round"/>
</svg>
