<svg width="1000" height="1000" viewBox="0 0 1000 1000" fill="none" xmlns="http://www.w3.org/2000/svg">
<path d="M380.531 478.128L380.508 478.14C380.486 478.162 380.486 478.185 380.486 478.185C378.924 479.769 377.75 481.684 376.793 483.724C376.531 484.237 376.349 484.704 376.143 485.24C375.938 485.764 375.653 486.243 375.494 486.801L329.816 655.769C328.015 662.47 329.93 669.616 334.819 674.528C338.512 678.209 343.458 680.203 348.506 680.203C350.193 680.203 351.914 679.987 353.555 679.519L516.027 635.608C517.098 635.79 518.124 636.235 519.206 636.235C524.175 636.235 529.133 634.343 532.916 630.559L796.021 367.432C810.039 353.403 817.788 334.746 817.788 314.905C817.788 295.063 810.039 276.407 796.021 262.377L748.679 215.035C720.631 186.965 671.637 187.011 643.635 215.035L380.531 478.128ZM671.056 242.422C684.436 229.008 707.867 229.019 721.292 242.433L768.634 289.764C775.358 296.476 779.051 305.4 779.051 314.905C779.051 324.41 775.358 333.322 768.634 340.046L754.389 354.292L656.787 256.702L671.056 242.422ZM629.39 284.099L726.991 381.689L519.229 589.463L421.605 491.861L629.39 284.099ZM410.197 535.226L480.138 605.179L376.029 633.34L404.168 529.22L410.197 535.226Z" fill="black"/>
<path d="M641.641 383.724L624.988 367.076L503.425 488.673L520.078 505.321L641.641 383.724Z" fill="black"/>
<path d="M201.363 806H722.648C763.631 806 796.932 772.665 796.932 731.694V469.364H758.194V731.705C758.194 751.319 742.262 767.251 722.648 767.251H220.749V253.215H551.39V214.466H201.363C190.662 214.466 182 223.139 182 233.84V786.614C182 797.316 190.65 806 201.363 806Z" fill="black"/>
</svg>
